<svg width="26" height="20" viewBox="0 0 26 20" fill="none" xmlns="http://www.w3.org/2000/svg">
<path d="M3.34024 18.4943C2.74597 18.4943 2.28489 18.3406 1.97751 18.023C1.67012 17.7053 1.50618 17.2443 1.50618 16.6397V3.36074C1.50618 2.74597 1.65988 2.28489 1.97751 1.97751C2.29514 1.67012 2.74597 1.50618 3.34024 1.50618H22.4288C23.0128 1.50618 23.4637 1.65988 23.7813 1.97751C24.0989 2.28489 24.2526 2.75621 24.2526 3.36074V16.6397C24.2526 17.2545 24.0989 17.7156 23.7813 18.023C23.4637 18.3304 23.0128 18.4943 22.4288 18.4943H3.34024ZM3.30951 20.0005H22.4596C23.5559 20.0005 24.3858 19.7238 24.9391 19.1705C25.4924 18.6172 25.7691 17.8078 25.7691 16.7217V3.27877C25.7691 2.19268 25.4924 1.37298 24.9391 0.829938C24.3858 0.286892 23.5559 0 22.4596 0H3.30951C2.21317 0 1.39348 0.276646 0.829938 0.829938C0.276646 1.38323 0 2.20292 0 3.28901V16.732C0 17.8181 0.276646 18.6377 0.829938 19.1808C1.38323 19.7238 2.21317 20.0005 3.30951 20.0005ZM8.11495 4.49806H17.6541C17.8488 4.49806 18.0025 4.43658 18.1254 4.31363C18.2484 4.19067 18.3099 4.03698 18.3099 3.84231C18.3099 3.64763 18.2484 3.50418 18.1254 3.37098C18.0025 3.24803 17.8488 3.18655 17.6541 3.18655H8.11495C7.93052 3.18655 7.77683 3.24803 7.65387 3.37098C7.53092 3.49394 7.46944 3.64763 7.46944 3.84231C7.46944 4.03698 7.53092 4.18043 7.65387 4.31363C7.77683 4.43658 7.93052 4.49806 8.11495 4.49806Z" fill="#636363"/>
</svg>
