<svg width="20" height="20" viewBox="0 0 20 20" fill="none" xmlns="http://www.w3.org/2000/svg">
<path d="M-0.0005004 5.75961V3.27562C-0.0005004 2.18675 0.277389 1.3701 0.833167 0.825661C1.38894 0.275554 2.2141 0.0005004 3.30865 0.0005004H5.73309V1.5062H3.34267C2.7472 1.5062 2.29067 1.66216 1.97308 1.97408C1.66116 2.286 1.5052 2.74536 1.5052 3.35218V5.75961H-0.0005004ZM7.08567 1.5062V0.0005004H12.9043V1.5062H7.08567ZM18.4933 5.75961V3.35218C18.4933 2.74536 18.3317 2.286 18.0084 1.97408C17.6908 1.66216 17.24 1.5062 16.6558 1.5062H14.2654V0.0005004H16.6813C17.7816 0.0005004 18.6096 0.275554 19.1653 0.825661C19.7211 1.37577 19.999 2.19242 19.999 3.27562V5.75961H18.4933ZM18.4933 12.8713V7.1207H19.999V12.8713H18.4933ZM14.2654 19.9915V18.4858H16.6558C17.24 18.4858 17.6908 18.3298 18.0084 18.0179C18.3317 17.706 18.4933 17.2466 18.4933 16.6398V14.2324H19.999V16.7164C19.999 17.7996 19.7211 18.6162 19.1653 19.1663C18.6096 19.7164 17.7816 19.9915 16.6813 19.9915H14.2654ZM7.08567 19.9915V18.4858H12.9043V19.9915H7.08567ZM3.30865 19.9915C2.2141 19.9915 1.38894 19.7164 0.833167 19.1663C0.277389 18.6219 -0.0005004 17.8052 -0.0005004 16.7164V14.2324H1.5052V16.6398C1.5052 17.2466 1.66116 17.706 1.97308 18.0179C2.29067 18.3298 2.7472 18.4858 3.34267 18.4858H5.73309V19.9915H3.30865ZM-0.0005004 12.8713V7.1207H1.5052V12.8713H-0.0005004Z" fill="#636363"/>
</svg>
