<svg width="37" height="42" viewBox="0 0 37 42" fill="none" xmlns="http://www.w3.org/2000/svg">
<g clip-path="url(#clip0_2145_8721)">
<path fill-rule="evenodd" clip-rule="evenodd" d="M18.0613 0.5H18.0625L36.1227 10.9233V30.3822L34.9186 31.0767L33.7145 31.7712V31.7724L32.5104 32.4669L31.3063 33.1613L30.1022 33.8558V33.857L28.8981 34.5515L27.694 35.246L26.49 35.9405V35.9417L25.2859 36.6362L24.0818 37.3307L22.8789 38.0252H22.8777V38.0264L21.6736 38.7208L20.4707 39.4153H20.4695L19.2666 40.1098H19.2654V40.111L18.0625 40.8055H18.0613L16.8584 41.5H16.8572L15.6544 40.8055H15.6532V40.8043L14.4503 40.1098H14.4491L13.2462 39.4153H13.245L12.0421 38.7208H12.0409V38.7196L10.838 38.0252H10.8368L9.63392 37.3307H9.63271L8.42983 36.6362H8.42862V36.635L7.22574 35.9405H7.22453L6.02165 35.246H6.02045L4.81756 34.5515H4.81636V34.5503L3.61347 33.8558H3.61227L2.40938 33.1613H2.40818L1.20409 32.4656L0 31.7712V10.9245L1.20409 10.2288L3.61227 8.83986L4.81636 8.14417L6.02045 7.44968L7.22453 6.7552L8.42862 6.0595L9.63271 5.36502H9.63392L10.8368 4.67053V4.66933H10.838L12.0409 3.97484H12.0421L13.245 3.28035H13.2462L14.4491 2.58587V2.58466H14.4503L15.6532 1.89018H15.6544L16.8572 1.19569H16.8584L18.0613 0.5ZM22.8692 11.6262L24.0733 12.3207H24.0745L25.2774 13.0163H25.2786L26.4815 13.7108L27.6856 14.4065L26.4827 15.101H26.4815L25.2786 15.7955H25.2774L24.0745 16.4912H24.0733L22.8704 17.1857H22.8692L21.6664 17.8802H21.6651L20.4623 18.5758H20.4611L18.0529 19.9648L15.6447 18.5746L14.4406 17.8802L13.2365 17.1857L12.0324 16.49L10.8283 15.7955L9.62426 15.101L8.42017 14.4053L6.01199 13.0163L4.8079 12.3207L2.39972 10.9317L3.60381 10.236L6.01199 8.84701L8.42017 10.236L9.62426 10.9317L12.0324 12.3207L13.2365 13.0163L15.6447 14.4053L16.8488 15.101L18.0529 15.7955L20.4611 14.4053L18.0529 13.0163L16.8488 12.3207L14.4406 10.9317L13.2365 10.236L10.8283 8.84701L9.62426 8.15132L8.42017 7.45684L9.62426 6.76235L10.8283 6.06666H10.8296L12.0324 5.37217H12.0336L13.2365 4.67648H13.2377L14.4406 3.982H14.4418L15.6447 3.28751H15.6459L16.8488 2.59182H16.85L18.0529 1.89733H18.0541L20.4611 3.28751H20.4623L21.6651 3.982L24.0733 5.37217L26.4815 6.76115L27.6856 7.45684L30.0938 8.84701L31.2979 9.5415H31.2991L33.706 10.9317L32.5032 11.6262H32.5019L31.2991 12.3207L31.2979 12.3219L30.095 13.0163L30.0938 13.0151L28.8909 12.3207H28.8897L27.6868 11.6262L27.6856 11.625L26.4827 10.9317L26.4815 10.9305L25.2786 10.236H25.2774L24.0745 9.5415L24.0733 9.5403L22.8692 8.84581L21.6651 8.15132L20.4623 7.45684L20.4611 7.45563L19.2582 6.76115H19.257L18.0541 6.06666H18.0529L16.85 6.76115L16.8488 6.76235L15.6459 7.45684L16.8488 8.15132H16.85L18.0529 8.84581H18.0541L19.257 9.5415H19.2582L20.4611 10.236H20.4623L21.6651 10.9305L22.8692 11.6262Z" fill="black"/>
</g>
<defs>
<clipPath id="clip0_2145_8721">
<rect width="36.1227" height="41" fill="white" transform="translate(0 0.5)"/>
</clipPath>
</defs>
</svg>
