<svg width="26" height="27" viewBox="0 0 26 27" fill="none" xmlns="http://www.w3.org/2000/svg">
<path d="M14.6216 6.92223H1V20.0793H14.6216M22.4054 6.92219H25V20.0792H22.4054M13.973 1.00163C15.9189 1.00161 18.5135 0.870102 18.5135 2.97523M18.5135 2.97523C18.5135 5.08035 18.5135 18.1058 18.5135 24.6843M18.5135 2.97523C18.5135 0.870102 20.9784 1.00165 23.0541 1.00165M18.5135 2.97523V24.6843M18.5135 24.6843C18.5135 26 15.9189 26 13.973 26M18.5135 24.6843C18.5135 26 20.9784 26 23.0541 26M6.83784 13.8297V12.1851H10.7297V13.8297M6.83784 13.8297V15.4743H10.7297V13.8297M6.83784 13.8297H10.7297M5.54054 10.2115H4.24324V16.7901H5.54054M5.54054 10.2115V16.7901M5.54054 10.2115H12.027M5.54054 16.7901H12.027M12.027 16.7901H13.3243V10.2115H12.027M12.027 16.7901V10.2115" stroke="#7D7D7D" stroke-width="2" stroke-linecap="round" stroke-linejoin="round"/>
</svg>
